<?xml version="1.0" encoding="utf-8"?>
<!-- Generator: Adobe Illustrator 24.0.3, SVG Export Plug-In . SVG Version: 6.00 Build 0)  -->
<svg version="1.1" id="レイヤー_1" xmlns="http://www.w3.org/2000/svg" xmlns:xlink="http://www.w3.org/1999/xlink" x="0px"
	 y="0px" viewBox="0 0 150 150" style="enable-background:new 0 0 150 150;" xml:space="preserve">
<style type="text/css">
	.st0{fill:#E1E1E1;}
	.st1{fill:#FFFFFF;}
</style>
<title>kunoichi-dammy</title>
<rect x="-0.5" class="st0" width="151" height="150"/>
<path id="パス_67" class="st1" d="M75,31.7c-24.1,0-43.7,19.5-43.7,43.6S50.8,119,74.9,119c24.1,0,43.7-19.5,43.7-43.6
	c0,0,0,0,0,0l0,0C118.6,51.3,99.1,31.7,75,31.7z M75,115.1c-22,0-39.8-17.8-39.8-39.8c0-22,17.8-39.8,39.8-39.8
	c22,0,39.8,17.8,39.8,39.7c0,0,0,0,0,0l0,0C114.7,97.3,96.9,115.1,75,115.1z M78.8,82.6c0.2,1.2,1.3,2.1,2.6,2h4.6
	c0.7,0,1.4,0.6,1.4,1.3c0,0,0,0,0,0c0,0,0,0.1,0,0.2L85.8,98c0.6,2.1,2.7,3.3,4.8,2.8c1.4-0.4,2.4-1.4,2.8-2.8l-1.4-11.9
	c-0.1-0.7,0.4-1.4,1.2-1.5h4.6c1.3,0.1,2.4-0.7,2.6-2v-5.2H78.7L78.8,82.6z M89.6,95c1,0,1.9,0.8,1.9,1.9c0,1-0.8,1.9-1.9,1.9
	c-1,0-1.9-0.8-1.9-1.9c0,0,0,0,0,0l0,0C87.7,95.8,88.6,95,89.6,95L89.6,95L89.6,95z M66,53.7h-2.8v6.7H55v-6.7h-2.8v6.7h-4.4v11.5
	c0,0.8,0.1,1.7,0.3,2.5H70c0.2-0.8,0.3-1.6,0.3-2.5V60.4H66V53.7z M85.2,62.5l-1.9-5.8h-6.8l1.9,18.4h22.3l1.9-18.4H86.2L85.2,62.5z
	 M57.7,82.6L56.8,101h5l-0.9-18.5c3.4-0.5,6.4-2.6,8.1-5.5H49.2C50.9,80.1,54.1,82.2,57.7,82.6z"/>
</svg>
