<svg id="レイヤー_1" data-name="レイヤー 1" xmlns="http://www.w3.org/2000/svg" viewBox="0 0 900 151"><title>kunoichi-type</title><g id="WordPress_Themes_Plugins" data-name="WordPress Themes Plugins" style="isolation:isolate"><g style="isolation:isolate"><path d="M71.45,37c-5,.72-6,1.51-8.12,7.62-1.65,4.67-6,17.83-12.29,38.24H47.88c-4.1-11.28-8.49-23.36-12.51-34.14h-.15c-3.95,11.86-7.83,23.07-11.5,34.14h-3.3c-4-13.15-7.77-25.66-11.87-38.6C6.61,38.44,5.46,37.58,1.08,37V34.56h20.2V37c-5.54.58-5.61,1.51-4.6,5.25,2.73,9,5.39,18.18,8.26,27.17h.15C28.75,58.21,32.71,46.7,36.3,35.13h3c4.17,11.57,8.48,23,12.72,34.43h.15c3-9.27,6.47-22,7.54-26.59,1-4.32.72-5.39-5.17-6V34.56h17Z"/><path d="M84.83,49.08a16.07,16.07,0,0,1,16.39,16.39c0,11.78-8.56,17.46-16.61,17.46-11,0-16.89-8.12-16.89-16.17a17.12,17.12,0,0,1,17-17.68Zm-1,2.66c-3.67,0-7.12,4.17-7.12,12.43,0,9.06,3.45,16.1,8.7,16.1,3.52,0,6.9-2.37,6.9-12.86,0-9.49-3-15.67-8.41-15.67Z"/><path d="M118,56.91c2.59-4.31,5.46-7.83,8.55-7.83a4.51,4.51,0,0,1,4.75,4.17,5.06,5.06,0,0,1-3.17,4.67,1.89,1.89,0,0,1-2.08-.29,5.06,5.06,0,0,0-3.31-1.44c-1.58,0-3.52,1.51-4.88,4.89v13.3c0,4.67.35,5,6.11,5.54v2.15H105.1V79.92c4.24-.51,4.89-.87,4.89-5.54V58.85c0-4.17-.51-4.45-4.17-5.17V51.81a60.34,60.34,0,0,0,12.08-2.88v8Z"/><path d="M170.08,80.2A96,96,0,0,0,156.86,83V78.48l-4.53,2.8a8.94,8.94,0,0,1-4.53,1.65c-6.18,0-14.52-5.24-14.52-15.81,0-10,8.84-18,19.77-18a17.22,17.22,0,0,1,3.81.57V40.09c0-4.31-.51-4.6-5.32-5V33a80.27,80.27,0,0,0,13.22-2.58V73.16c0,4,.44,4.38,3.46,4.67l1.86.22ZM156.86,55.83a7,7,0,0,0-6.33-3.73c-2.37,0-8.34,2.22-8.34,13.15,0,8.77,5.32,12.51,9.28,12.51A9.43,9.43,0,0,0,156.86,76Z"/><path d="M193.52,34.56c5.53,0,9.7.79,12.58,2.94,3.23,2.23,5.17,5.83,5.17,10.57,0,9.7-7.26,14.23-14.73,15.1a26.15,26.15,0,0,1-3.16.14L188.13,62V72.58c0,6.18.64,6.62,7.11,7.19v2.3H173.46v-2.3c5.75-.57,6.4-1.08,6.4-7.19V44.12c0-6.33-.65-6.69-6-7.12V34.56Zm-5.39,24.72a12.89,12.89,0,0,0,4.6.8c3.59,0,9.42-2.16,9.42-11.79,0-8.13-4.89-11.07-10-11.07a5.15,5.15,0,0,0-3.3.79c-.51.5-.72,1.22-.72,2.8Z"/><path d="M228.17,56.91c2.59-4.31,5.46-7.83,8.55-7.83a4.51,4.51,0,0,1,4.75,4.17,5.07,5.07,0,0,1-3.16,4.67,1.9,1.9,0,0,1-2.09-.29,5.06,5.06,0,0,0-3.31-1.44c-1.58,0-3.52,1.51-4.88,4.89v13.3c0,4.67.36,5,6.11,5.54v2.15H215.23V79.92c4.24-.51,4.89-.87,4.89-5.54V58.85c0-4.17-.5-4.45-4.17-5.17V51.81A60.34,60.34,0,0,0,228,48.93v8Z"/><path d="M271,75.24c-4.52,6.33-10,7.69-12.72,7.69-9.42,0-14.88-7.18-14.88-15.6a18.41,18.41,0,0,1,5.18-12.93c3.16-3.31,7.26-5.32,11.14-5.32h.07a11.67,11.67,0,0,1,11.5,11.5c0,1.44-.43,2.23-1.87,2.51S259,64,251.17,64.24c.22,8.7,5.11,12.73,10.36,12.73a12,12,0,0,0,8.26-3.45ZM258,52c-2.94,0-5.75,3.09-6.54,9.06,3.52,0,6.83-.07,10.35-.22,1.22,0,1.66-.28,1.66-1.43,0-3.74-2-7.41-5.32-7.41Z"/><path d="M295.17,59.07c-1.8-4.39-4.17-7.33-7.77-7.33a4.22,4.22,0,0,0-4.16,4.38c0,2.66,2.22,4.39,5.75,5.9,5.89,2.37,9.7,5,9.7,10.42,0,7-6.69,10.49-12.72,10.49-3.81,0-7.55-1.36-8.92-2.44-.5-1.15-1.15-6.18-1.15-9.42l2-.21c1.5,4.74,4.88,9.41,9.34,9.41a4.42,4.42,0,0,0,4.53-4.38c0-2.59-1.44-4.31-5.61-6.33-3.88-1.79-9.41-4.38-9.41-10.49,0-5.46,4.6-10,11.86-10a17.21,17.21,0,0,1,6.9,1.29,47.48,47.48,0,0,1,1.72,8.12Z"/><path d="M322.63,59.07c-1.8-4.39-4.17-7.33-7.76-7.33a4.22,4.22,0,0,0-4.17,4.38c0,2.66,2.22,4.39,5.75,5.9,5.89,2.37,9.7,5,9.7,10.42,0,7-6.68,10.49-12.72,10.49-3.81,0-7.55-1.36-8.92-2.44-.5-1.15-1.15-6.18-1.15-9.42l2-.21c1.51,4.74,4.88,9.41,9.34,9.41a4.42,4.42,0,0,0,4.53-4.38c0-2.59-1.44-4.31-5.61-6.33-3.88-1.79-9.41-4.38-9.41-10.49,0-5.46,4.6-10,11.86-10a17.21,17.21,0,0,1,6.9,1.29,47.48,47.48,0,0,1,1.72,8.12Z"/><path d="M387.18,46.7c-.79-3.73-1.8-5.89-2.87-7.26C383,38,381.5,37.5,376.54,37.5h-4.17V72.58c0,6,.65,6.62,7.41,7.19v2.3H356.92v-2.3c6.4-.57,7-1.15,7-7.19V37.5h-3.38c-6.18,0-7.62.79-8.55,2.09-1.15,1.36-1.94,3.66-2.88,7.19h-2.51c.36-5,.79-10.14.93-14h1.66c1.07,1.65,2.08,1.8,4.17,1.8h29.68a4.63,4.63,0,0,0,4.1-1.8h1.65c0,3.23.36,9.27.79,13.73Z"/><path d="M413.56,82.07V79.92c3.81-.51,4.17-1,4.17-5.32V62.16c0-5.82-2.37-8.2-6.18-8.2a8.62,8.62,0,0,0-6.25,2.81V74.6c0,4.31.36,4.81,4,5.32v2.15H392.57V79.92c4.32-.44,4.82-.8,4.82-5.54V40c0-4.53-.29-4.67-4.53-5.1V33a86,86,0,0,0,12.44-2.58V54c2.58-2.52,6.32-5,10.13-5,6.18,0,10.21,4,10.21,12.43V74.38c0,4.74.5,5,4.53,5.54v2.15Z"/><path d="M461.51,75.24c-4.53,6.33-10,7.69-12.72,7.69-9.42,0-14.88-7.18-14.88-15.6a18.4,18.4,0,0,1,5.17-12.93c3.17-3.31,7.26-5.32,11.15-5.32h.07a11.67,11.67,0,0,1,11.5,11.5c0,1.44-.43,2.23-1.87,2.51s-10.42.87-18.26,1.15C441.89,72.94,446.78,77,452,77a12,12,0,0,0,8.27-3.45ZM448.5,52C445.55,52,442.75,55,442,61c3.52,0,6.83-.07,10.35-.22,1.22,0,1.65-.28,1.65-1.43,0-3.74-2-7.41-5.32-7.41Z"/><path d="M506.37,82.07V79.92c3.74-.44,4.38-.8,4.38-5.61V62c0-5.76-2.51-7.77-5.75-7.77-1.94,0-4.17.86-6.75,3,.07.86.14,1.8.14,3V74.67c0,4.38.65,4.74,4.24,5.25v2.15H486.17V79.92c3.88-.51,4.38-.8,4.38-5.25V61.8c0-5.39-2.22-7.62-5.75-7.62-2.22,0-4.45,1.37-6.61,3V74.67c0,4.38.5,4.74,3.67,5.25v2.15H465.25V79.92c4.53-.51,5-.8,5-5.47V59.28c0-4.45-.28-5-4-5.53V51.81a85.85,85.85,0,0,0,11.79-3v5.82c1.58-1.07,3.16-2.3,5-3.38a10.88,10.88,0,0,1,6.18-2.22A8.92,8.92,0,0,1,497.6,55c1.94-1.51,3.88-2.73,5.61-3.88a10.24,10.24,0,0,1,5.67-2c6.19,0,9.71,4.17,9.71,11.64V74.6c0,4.52.43,4.74,4.46,5.32v2.15Z"/><path d="M554.61,75.24c-4.53,6.33-10,7.69-12.73,7.69-9.42,0-14.88-7.18-14.88-15.6a18.41,18.41,0,0,1,5.18-12.93c3.16-3.31,7.26-5.32,11.14-5.32h.07a11.67,11.67,0,0,1,11.5,11.5c0,1.44-.43,2.23-1.87,2.51-1.29.15-10.42.87-18.25,1.15C535,72.94,539.87,77,545.12,77a12,12,0,0,0,8.26-3.45ZM541.59,52c-2.94,0-5.75,3.09-6.54,9.06,3.53,0,6.83-.07,10.35-.22,1.23,0,1.66-.28,1.66-1.43,0-3.74-2-7.41-5.32-7.41Z"/><path d="M578.76,59.07c-1.8-4.39-4.17-7.33-7.76-7.33a4.22,4.22,0,0,0-4.17,4.38c0,2.66,2.22,4.39,5.75,5.9,5.89,2.37,9.7,5,9.7,10.42,0,7-6.68,10.49-12.72,10.49-3.81,0-7.55-1.36-8.92-2.44-.5-1.15-1.15-6.18-1.15-9.42l2-.21c1.51,4.74,4.88,9.41,9.34,9.41a4.42,4.42,0,0,0,4.53-4.38c0-2.59-1.44-4.31-5.61-6.33-3.88-1.79-9.41-4.38-9.41-10.49,0-5.46,4.6-10,11.86-10a17.21,17.21,0,0,1,6.9,1.29,47.48,47.48,0,0,1,1.72,8.12Z"/><path d="M654.31,53.17c-4.74.51-6,1.66-8.7,5.18-1.94,2.66-3.88,5.53-6.25,9.06a82.2,82.2,0,0,1,12.43,15l-.43.79c-5.89-.14-10.21-1.8-11.14-2.73s-3.52-3.88-6-6.54c-5,6.47-9.77,9.13-14.81,9.13-9.7,0-15.09-7.12-15.09-13.52s4.24-9.05,10.64-13.58c-3.17-2.95-5-6.11-5-10.21,0-6.61,5.9-12,12.87-12,6.76,0,11.79,4.38,11.79,10.35a7.45,7.45,0,0,1-3.16,6.18,52.2,52.2,0,0,1-5.9,4.38c2.3,1.87,7,5.9,11.94,10.71a48.77,48.77,0,0,0,3.88-7.26c1.51-3.3.93-4.24-4.24-5V51h17.25ZM622.25,77.11c4,0,7.91-2.59,10-5.25a164.25,164.25,0,0,0-15.45-14.09c-3.09,2.66-4.6,5.83-4.6,9,0,7,5.1,10.35,10,10.35Zm-.36-40.61c-3,0-5.39,2.94-5.39,6.75s2.16,6.19,7,9.85A11.27,11.27,0,0,0,627.93,44c0-3.95-2.3-7.47-6-7.47Z"/><path d="M692.91,34.56c5.54,0,9.71.79,12.58,2.94,3.24,2.23,5.18,5.83,5.18,10.57,0,9.7-7.26,14.23-14.74,15.1a26.15,26.15,0,0,1-3.16.14L687.52,62V72.58c0,6.18.65,6.62,7.12,7.19v2.3H672.86v-2.3c5.75-.57,6.39-1.08,6.39-7.19V44.12c0-6.33-.64-6.69-6-7.12V34.56Zm-5.39,24.72a12.89,12.89,0,0,0,4.6.8c3.6,0,9.42-2.16,9.42-11.79,0-8.13-4.89-11.07-10-11.07a5.16,5.16,0,0,0-3.31.79c-.5.5-.72,1.22-.72,2.8Z"/><path d="M713.62,82.07V79.92c4.53-.65,5-1,5-5.76V40.23c0-4.67-.43-4.81-4.75-5.24V33a73.59,73.59,0,0,0,12.66-2.58V74.16c0,4.89.5,5.25,5.1,5.76v2.15Z"/><path d="M771.12,80.35c-1.87.28-4,.64-6.11,1.15s-4.38,1-6.18,1.43l-.65-.5V77.69a32,32,0,0,1-4.45,3.23,11.06,11.06,0,0,1-6,2c-5.68,0-9.49-3.52-9.49-10.64V57.7c0-3.66-.5-4-2.37-4.53L734,52.74V50.8c1.72-.07,3.74-.29,6.11-.57s4.6-.51,6.25-.79c-.14,2.73-.21,6.32-.21,10.85V70.57c0,5.46,2.87,7.19,5.68,7.19a8.73,8.73,0,0,0,6.39-2.66V57.7c0-3.66-.5-4.09-2.66-4.53L753,52.74V50.8c2.16-.07,4.74-.29,7.19-.57,2.3-.22,4.45-.51,5.89-.79V73.37c0,3.81.5,4.46,3.31,4.68l1.72.14Z"/><path d="M807.86,50.66a10.87,10.87,0,0,1-3.16,4.09l-4.25-.28a9.2,9.2,0,0,1,2,6c0,7.69-6.69,11.5-13.59,11.5a28.35,28.35,0,0,1-3.67-.36,3.61,3.61,0,0,0-1.5,2.37c0,1.37,1.29,2.88,4.67,2.88,2.51,0,4.81-.15,7.26-.15,4.45,0,11,1.22,11,8.84,0,7.91-9.42,14.81-19.13,14.81-9,0-13.29-4.81-13.37-8.91a5.33,5.33,0,0,1,2.16-4.1,52.83,52.83,0,0,1,5.75-4.24,9.21,9.21,0,0,1-5.53-4,6.64,6.64,0,0,1-.94-3.52,20.49,20.49,0,0,0,7-4.67,10.13,10.13,0,0,1-6.83-9.71c0-8.33,7.55-12.14,13.73-12.14h.07A15.23,15.23,0,0,1,797.08,51c3.8-.15,7.69-.65,10.42-1ZM790,83.37c-3.52,0-5.11.35-6.33,1.58a6.07,6.07,0,0,0-2.37,4.53c0,3.66,3.88,7,9.56,7,6.11,0,9.56-3.24,9.56-7.41a5,5,0,0,0-3.74-5,22.32,22.32,0,0,0-6.61-.71Zm-1.08-31.78c-2.52,0-5,2.88-5,8.34s2.15,9.49,5.89,9.49c3,0,5.18-2.88,5.18-8.48,0-5-2.09-9.35-6-9.35Z"/><path d="M810.16,82.07V79.92c4.46-.51,5-.87,5-6V59.28c0-4.67-.43-5-4.24-5.53v-2A66.49,66.49,0,0,0,823,49V73.88c0,5,.35,5.46,5,6v2.15ZM814,39.16a4.63,4.63,0,0,1,4.6-4.6,4.54,4.54,0,0,1,4.6,4.6,4.59,4.59,0,0,1-4.67,4.53A4.65,4.65,0,0,1,814,39.16Z"/><path d="M852.28,82.07V79.92c3.6-.51,4-.87,4-6.12V61.66c0-5.11-2.3-7.48-5.82-7.48-2.31,0-4.46,1.29-6.55,3V74.38c0,4.74.44,5,4,5.54v2.15h-17V79.92c4.75-.65,5.11-.87,5.11-5.76V59.21c0-4.53-.43-4.81-4.1-5.53V51.81a79.69,79.69,0,0,0,12-3v5.61c1.44-.94,3-2.16,4.75-3.24,2.23-1.44,3.81-2.15,5.89-2.15,5.83,0,9.56,4.24,9.56,11.57V74.38c0,4.74.43,5,4.46,5.54v2.15Z"/><path d="M892,59.07c-1.8-4.39-4.17-7.33-7.77-7.33a4.22,4.22,0,0,0-4.17,4.38c0,2.66,2.23,4.39,5.75,5.9,5.9,2.37,9.71,5,9.71,10.42,0,7-6.69,10.49-12.73,10.49-3.81,0-7.54-1.36-8.91-2.44-.5-1.15-1.15-6.18-1.15-9.42l2-.21c1.51,4.74,4.89,9.41,9.35,9.41a4.43,4.43,0,0,0,4.53-4.38c0-2.59-1.44-4.31-5.61-6.33-3.88-1.79-9.42-4.38-9.42-10.49,0-5.46,4.6-10,11.86-10a17.13,17.13,0,0,1,6.9,1.29c.72,1.65,1.51,6.54,1.73,8.12Z"/></g></g><g id="by_KUNOiCHI" data-name="by KUNOiCHI" style="isolation:isolate"><g style="isolation:isolate"><path d="M16.83,112.41a4.32,4.32,0,0,1,1.81-.53,6.94,6.94,0,0,1,6.85,7.05,8.42,8.42,0,0,1-8.63,8.47,14.31,14.31,0,0,1-5.54-1.19V107.83c0-2-.16-2.24-2.14-2.41v-.92A36.93,36.93,0,0,0,15,103.32v9.91ZM15,123.25a2.44,2.44,0,0,0,.2,1.12,2.69,2.69,0,0,0,2.43,1.71c2.24,0,4-2.11,4-6.16s-2.24-6-4.65-6a5.59,5.59,0,0,0-1.94.36Z"/><path d="M55.74,113.26c-1.68.3-2,.6-2.87,2.44s-1.94,4.55-4.08,9.59a84.65,84.65,0,0,0-3.53,9.26,1.15,1.15,0,0,1-1.19.89,2.32,2.32,0,0,1-2.17-1.95c0-.53.23-.82.86-1.28a6.11,6.11,0,0,0,2.7-2.67,9.3,9.3,0,0,0,.82-1.75,2.26,2.26,0,0,0-.1-1.55c-1.58-4.38-3.29-8.86-4.08-10.7-.66-1.58-1-2-2.74-2.28v-1h7.71v1c-1.45.3-1.68.53-1.28,1.68l2.77,7.81c.82-2,2.14-5.63,2.76-7.61.36-1.15.1-1.58-1.64-1.88v-1h6.06Z"/><path d="M106.21,127c-2-2.4-4.74-6-7.44-9.49-.76-1-1.19-1.18-1.72-1.08v6.12c0,2.9.3,3.13,3,3.4v1H90.5v-1c2.47-.27,2.8-.5,2.8-3.4V109.67c0-2.93-.3-3.13-2.9-3.32v-1.12h9.42v1.12c-2.47.19-2.77.42-2.77,3.32v5.77a6.3,6.3,0,0,0,2.51-1.71c2.14-2.11,3.85-4,5.14-5.57.85-1.12.82-1.55-.73-1.75l-.72-.06v-1.12h8.56v1.12a7.65,7.65,0,0,0-5.4,2.37c-1.75,1.58-3.59,3.46-5.44,5.33,2.34,3.23,5.41,6.89,7.52,9.39,1.54,1.82,2.4,2.28,3.85,2.51v1Z"/><path d="M150.2,106.35c-1.91.1-2.74.69-2.9,2a34.63,34.63,0,0,0-.27,4.94v3.2c0,3.76-.59,6.59-2.53,8.63a8.41,8.41,0,0,1-6.16,2.41,9,9,0,0,1-5.77-1.72c-2-1.48-2.93-4-2.93-7.94v-8c0-3.1-.3-3.26-2.9-3.49v-1.12h9.62v1.12c-2.54.19-2.9.39-2.9,3.49v7.34c0,5.21,2,8.21,5.93,8.21,4.42,0,6.1-3.46,6.1-9.06v-3.07a30.84,30.84,0,0,0-.3-5c-.2-1.22-1-1.78-3.33-1.91v-1.12h8.34Z"/><path d="M188.32,106.31c-1.85.1-2.57.53-2.74,2.08a43.64,43.64,0,0,0-.26,5.6v13.34h-1.38l-14.37-17.1h-.06v7.91a52.08,52.08,0,0,0,.23,5.53c.16,1.59.82,2.11,3.23,2.28v1H164.8v-1c1.91-.17,2.73-.66,2.9-2.18a43.91,43.91,0,0,0,.29-5.63V111c0-2.27-.06-2.7-.69-3.49s-1.42-1.08-2.93-1.22v-1.08h5.73l13.57,15.61h.1V114a50.51,50.51,0,0,0-.23-5.53c-.16-1.49-.92-2-3.36-2.15v-1.08h8.14Z"/><path d="M215.14,104.73a11,11,0,0,1,11.2,11.14c0,7.21-5.27,11.63-11.63,11.63a11,11,0,0,1-11.4-11.27,11.35,11.35,0,0,1,11.8-11.5Zm-.69,1.35c-3.59,0-6.66,3.36-6.66,9.42s3,10.68,7.58,10.68c3.49,0,6.49-3.13,6.49-9.42,0-6.82-3.2-10.68-7.38-10.68Z"/><path d="M242,127v-1c2-.23,2.27-.39,2.27-2.76v-6.69c0-2.14-.19-2.27-1.94-2.54v-.92a30.3,30.3,0,0,0,5.57-1.25v11.4c0,2.3.16,2.5,2.27,2.76v1Zm1.75-19.67a2.12,2.12,0,0,1,2.11-2.1,2.07,2.07,0,0,1,2.1,2.1,2.1,2.1,0,0,1-2.14,2.08A2.13,2.13,0,0,1,243.71,107.33Z"/><path d="M286,121.3a36.21,36.21,0,0,1-1.94,5.31,30.48,30.48,0,0,1-6.33.89c-8.83,0-12.58-5.77-12.58-11.11,0-7,5.43-11.66,13.37-11.66a28.46,28.46,0,0,1,6.13.89c.33,1.88.56,3.36.76,5.37l-1.15.23c-1-3.82-3.4-5.1-6.53-5.1-5.3,0-8.13,4.61-8.13,9.62,0,6.19,3.52,10.34,8.43,10.34,3.16,0,5.14-1.81,6.89-5.24Z"/><path d="M325,106.35c-2.7.19-2.94.39-2.94,3.23v13.11c0,2.8.3,3,2.94,3.26v1h-9.82v-1c2.8-.27,3.06-.46,3.06-3.26v-6.43H307.92v6.43c0,2.8.27,3,2.87,3.26v1H301.2v-1c2.57-.27,2.87-.46,2.87-3.26V109.58c0-2.84-.3-3-3-3.23v-1.12h9.59v1.12c-2.5.19-2.77.39-2.77,3.23v5.07h10.31v-5.07c0-2.84-.26-3-2.86-3.23v-1.12H325Z"/><path d="M340.71,127v-1c2.63-.27,2.93-.46,2.93-3.3v-13c0-2.87-.3-3.07-2.93-3.26v-1.12h9.65v1.12c-2.6.19-2.9.39-2.9,3.26v13c0,2.84.3,3,2.9,3.3v1Z"/></g></g></svg>