<svg id="レイヤー_1" data-name="レイヤー 1" xmlns="http://www.w3.org/2000/svg" viewBox="0 0 50 50"><title>kunoichi_logo</title><path id="パス_67" data-name="パス 67" d="M25,0A25,25,0,1,0,50,25h0A25,25,0,0,0,25,0Zm0,47.78A22.78,22.78,0,1,1,47.78,25h0A22.82,22.82,0,0,1,25,47.78Zm2.15-18.62a1.35,1.35,0,0,0,1.47,1.14h2.65a.77.77,0,0,1,.77.77s0,.06,0,.09L31.23,38a2,2,0,0,0,2.18,1.67A2,2,0,0,0,35.59,38l-.79-6.8a.77.77,0,0,1,.68-.85h2.65a1.34,1.34,0,0,0,1.47-1.13v-3H27.15Zm6.26,7.06a1.08,1.08,0,1,1-1.08,1.08h0a1.07,1.07,0,0,1,1.07-1.08ZM19.89,12.6h-1.6v3.83h-4.7V12.6H12v3.83H9.44V23a5.64,5.64,0,0,0,.18,1.42h12.5A5.64,5.64,0,0,0,22.3,23V16.43H19.89Zm11,5-1.11-3.33H25.88L27,24.83H39.77l1.11-10.55H31.43ZM15.11,29.15l-.53,10.54h2.85l-.54-10.58a6.44,6.44,0,0,0,4.64-3.17H10.21A6.46,6.46,0,0,0,15.11,29.15Z" style="fill:#040000"/></svg>