<svg id="レイヤー_1" data-name="レイヤー 1" xmlns="http://www.w3.org/2000/svg" viewBox="0 0 151 150"><title>kunoichi-dammy</title><rect width="151" height="150" style="fill:#e1e1e1"/><path id="パス_67" data-name="パス 67" d="M75,31.73A43.64,43.64,0,1,0,118.6,75.36h0A43.63,43.63,0,0,0,75,31.73Zm0,83.39a39.76,39.76,0,1,1,39.75-39.76h0A39.79,39.79,0,0,1,75,115.12Zm3.75-32.49a2.35,2.35,0,0,0,2.57,2H85.9A1.35,1.35,0,0,1,87.25,86s0,.11,0,.16L85.84,98a3.94,3.94,0,0,0,7.61,0L92.07,86.1a1.35,1.35,0,0,1,1.18-1.49h4.63a2.33,2.33,0,0,0,2.57-2V77.39H78.72ZM89.64,95a1.89,1.89,0,1,1-1.89,1.88h0a1.89,1.89,0,0,1,1.88-1.89h0ZM66,53.71H63.25v6.7H55v-6.7h-2.8v6.7H47.8V71.86a10.94,10.94,0,0,0,.31,2.48H70a10.39,10.39,0,0,0,.3-2.48V60.41H66Zm19.19,8.75-1.94-5.81H76.5l1.94,18.42h22.3l1.94-18.42H86.19ZM57.71,82.6,56.78,101h5l-.94-18.46A11.24,11.24,0,0,0,68.9,77H49.15A11.25,11.25,0,0,0,57.71,82.6Z" transform="translate(0.5)" style="fill:#fff"/></svg>