<svg id="レイヤー_1" data-name="レイヤー 1" xmlns="http://www.w3.org/2000/svg" viewBox="0 0 512 512"><title>kunoichi-logo</title><path id="パス_67" data-name="パス 67" d="M255.48.14c-141.39,0-256,114.62-256,256s114.61,256,256,256,256-114.61,256-256h0C511.48,114.76,396.86.14,255.48.14Zm0,489.25C126.66,489.39,22.23,385,22.23,256.14S126.66,22.89,255.48,22.89,488.72,127.32,488.72,256.14h0c-.14,128.76-104.49,233.09-233.24,233.22Zm22-190.61a13.72,13.72,0,0,0,15.08,11.59h27a7.9,7.9,0,0,1,7.88,7.89,7.26,7.26,0,0,1-.06.93l-8.19,69.54a20.32,20.32,0,0,0,22.32,17.17,20.32,20.32,0,0,0,22.33-17.17l-8.09-69.6a7.88,7.88,0,0,1,6.93-8.74c.3,0,.6-.05.9-.05h26.27A13.72,13.72,0,0,0,405,298.75V268H277.52Zm64,72.24a11.07,11.07,0,1,1-11.07,11.07h0a11.08,11.08,0,0,1,11-11.1h0ZM203.11,129.11H186.72v39.31H138.6V129.11H122.17v39.31h-26v67.15a61.23,61.23,0,0,0,1.82,14.58H226a61.8,61.8,0,0,0,1.81-14.58V168.42H203.11Zm112.56,51.36-11.38-34.13H264.47l11.37,108.09H406.69l11.38-108.09H321.35ZM154.24,298.62l-5.47,107.9h29.17l-5.49-108.25a66,66,0,0,0,47.47-32.47H104.06A66,66,0,0,0,154.24,298.62Z"/></svg>