<svg id="レイヤー_1" data-name="レイヤー 1" xmlns="http://www.w3.org/2000/svg" viewBox="0 0 180 50"><title>kunoichi_logo</title><g id="グループ_1313" data-name="グループ 1313"><path id="パス_261" data-name="パス 261" d="M23,24.73V24a4.11,4.11,0,0,1-2.81-1.82c-1.54-1.83-3.77-4.49-5.47-6.84,1.34-1.37,2.68-2.74,4-3.89a5.58,5.58,0,0,1,3.93-1.73V8.86H16.35v.82l.53.05c1.13.14,1.15.45.53,1.27-.94,1.13-2.19,2.52-3.75,4.06a4.48,4.48,0,0,1-1.82,1.24V12.1c0-2.11.22-2.28,2-2.42V8.86H7v.82c1.9.14,2.11.29,2.11,2.42v9.39c0,2.11-.24,2.28-2,2.47v.77h7V24c-2-.19-2.18-.36-2.18-2.47V17c.38-.07.7,0,1.25.79,2,2.54,4,5.16,5.42,6.91Zm12.14-1.3-.58-.05c-.93-.07-1.1-.29-1.1-1.56v-8a19.38,19.38,0,0,1-2,.26c-.82.1-1.68.17-2.4.19v.65l.84.15c.72.14.88.28.88,1.51V22.4a2.94,2.94,0,0,1-2.13.88c-.94,0-1.9-.57-1.9-2.4V17.46c0-1.52,0-2.72.07-3.63-.55.1-1.34.19-2.09.27s-1.46.16-2,.19v.65l.63.14c.62.17.79.29.79,1.51v4.87c0,2.38,1.27,3.56,3.17,3.56a3.73,3.73,0,0,0,2-.68,9.74,9.74,0,0,0,1.49-1.08v1.59L31,25c.6-.15,1.32-.34,2.06-.48s1.42-.29,2-.39Zm13.56,1.3V24c-1.35-.19-1.49-.27-1.49-1.85V17.58c0-2.45-1.25-3.87-3.19-3.87a3.44,3.44,0,0,0-2,.72c-.57.36-1.1.77-1.58,1.08V13.64a26.35,26.35,0,0,1-4,1v.62c1.22.24,1.37.34,1.37,1.85v5c0,1.63-.12,1.7-1.7,1.92v.72h5.68V24c-1.2-.17-1.34-.27-1.34-1.85V16.4a3.65,3.65,0,0,1,2.18-1c1.18,0,1.95.79,1.95,2.5v4c0,1.75-.15,1.87-1.35,2v.72Zm7-11A5.72,5.72,0,0,0,50,19.45v.16A5.36,5.36,0,0,0,55.26,25h.33a5.47,5.47,0,0,0,5.55-5.4c0-.14,0-.29,0-.43a5.36,5.36,0,0,0-5.25-5.47h-.24Zm-.29.89c1.8,0,2.81,2.06,2.81,5.23,0,3.5-1.13,4.3-2.3,4.3-1.75,0-2.9-2.35-2.9-5.37,0-2.76,1.15-4.16,2.38-4.16Zm9.84-2.69a1.52,1.52,0,0,0,1.56-1.5h0a1.52,1.52,0,0,0-1.49-1.54h0a1.53,1.53,0,1,0,0,3.05Zm3.17,12.82V24c-1.54-.19-1.66-.34-1.66-2v-8.3a21.75,21.75,0,0,1-4.05.91v.68c1.27.19,1.41.28,1.41,1.84V22c0,1.72-.16,1.84-1.65,2v.72Zm10.15-2.86A3.73,3.73,0,0,1,75.73,23c-1.17,0-3.55-1.1-3.55-4.39,0-2.6,1.25-3.68,2.5-3.68a3.78,3.78,0,0,1,2.47,1.18.9.9,0,0,0,.5.26,1.31,1.31,0,0,0,1-1.22.88.88,0,0,0-.41-.82A3.45,3.45,0,0,0,76,13.72h0a6.94,6.94,0,0,0-3.93,1.46,5.78,5.78,0,0,0-2.5,4.7A5,5,0,0,0,74.48,25h.26a5.73,5.73,0,0,0,4.2-2.57ZM92,24.73V24c-1.35-.19-1.52-.27-1.52-1.85v-4.3c0-2.83-1.34-4.15-3.4-4.15a5.19,5.19,0,0,0-3.39,1.66V7.47a28.05,28.05,0,0,1-4.15.86V9c1.41.15,1.51.2,1.51,1.71V22.16c0,1.58-.17,1.7-1.61,1.85v.72H85V24c-1.23-.17-1.35-.34-1.35-1.78V16.28a2.87,2.87,0,0,1,2.09-.94c1.27,0,2.06.8,2.06,2.74v4.15c0,1.44-.12,1.61-1.39,1.77v.73Zm4-12.82a1.52,1.52,0,0,0,1.56-1.5h0A1.52,1.52,0,0,0,96,8.86h0a1.53,1.53,0,1,0,0,3.05ZM99.1,24.73V24c-1.53-.19-1.65-.34-1.65-2v-8.3a21.68,21.68,0,0,1-4.06.91v.68c1.27.19,1.42.28,1.42,1.84V22c0,1.72-.17,1.84-1.66,2v.72Zm27.12,0V24c-2-.22-2.11-.38-2.16-2.78l-.24-9c0-2.23.08-2.35,2.12-2.54V8.86H121.3l-5.23,11.33L110.93,8.86h-4.65v.82c2.16.19,2.32.43,2.11,3.38L108,17.94c-.19,2.56-.36,3.74-.48,4.56s-.67,1.3-2.09,1.44v.79h5.88v-.79c-1.63-.17-2.16-.36-2.23-1.47a31.08,31.08,0,0,1,0-4l.34-6.63h.07l5.26,12.72h.6l5.71-13h.1l.07,9.58c0,2.4-.1,2.56-2,2.78v.77Zm11.55-1.06-.24-.72a2,2,0,0,1-.89.24c-.41,0-.79-.33-.79-1.46V17.55a3.49,3.49,0,0,0-1.25-3.14,3.27,3.27,0,0,0-2.21-.7,12,12,0,0,0-3.93,1.73c-.5.4-.8.7-.8,1.08a1.39,1.39,0,0,0,1.3,1.17.84.84,0,0,0,.92-.74,4.56,4.56,0,0,1,.72-1.66,1.19,1.19,0,0,1,.93-.43c1.06,0,1.73.91,1.73,2.57V18a18.25,18.25,0,0,1-3.84,1.61c-1.32.45-1.92,1.13-1.92,2.35A3.1,3.1,0,0,0,130.6,25h0a7.73,7.73,0,0,0,2.71-1.49,1.92,1.92,0,0,0,2,1.49Zm-4.51-.93a2.39,2.39,0,0,1-1.42.6,1.7,1.7,0,0,1-1.59-1.81.2.2,0,0,1,0-.07c0-.86.48-1.32,1.32-1.7.5-.26,1.22-.62,1.68-.88Zm9.43-6.41V13.66a20,20,0,0,1-4,1v.63c1.22.24,1.39.33,1.39,1.73v5.18c0,1.56-.22,1.68-1.63,1.85v.72h6.31V24c-1.92-.17-2-.29-2-1.85V17.72c.46-1.13,1.1-1.63,1.63-1.63a1.66,1.66,0,0,1,1.1.48.64.64,0,0,0,.7.1,1.69,1.69,0,0,0,1.06-1.56,1.5,1.5,0,0,0-1.58-1.39c-1,0-2,1.17-2.86,2.61Zm17.54,8.4V24a3.27,3.27,0,0,1-2.23-1.3c-.79-.89-3.12-3.79-3.7-4.7a19.72,19.72,0,0,1,1.87-2.11,5,5,0,0,1,3.15-1.35v-.7l-5.21.22v.72c1,.14,1.13.38.74,1a18.83,18.83,0,0,1-1.56,2.11,3.19,3.19,0,0,1-1.44.89V7.47a24.72,24.72,0,0,1-4.17.87V9c1.39.15,1.56.29,1.56,1.76v11.4c0,1.56-.15,1.68-1.7,1.87v.72h6V24c-1.49-.19-1.68-.29-1.68-1.87V19.5h.28c.17,0,.34.14.58.45,1.2,1.68,2.66,3.77,3.6,4.83Zm9-2.86A4,4,0,0,1,166.47,23c-1.75,0-3.38-1.35-3.45-4.25,2.61-.1,5.66-.34,6.1-.38s.62-.36.62-.84a3.89,3.89,0,0,0-3.84-3.84h0a5.35,5.35,0,0,0-3.72,1.77,6.16,6.16,0,0,0-1.73,4.32A4.88,4.88,0,0,0,165,25h.4a5.5,5.5,0,0,0,4.25-2.57Zm-3.89-7.2c1.1,0,1.78,1.23,1.78,2.47,0,.39-.14.48-.55.48-1.18.05-2.28.08-3.46.08.27-2,1.2-3,2.19-3ZM178,23.82l-.21-.75a3.84,3.84,0,0,1-1.37.34c-.55,0-1.42-.27-1.42-2.21V15.1h2.4a.76.76,0,0,0,.21-1l0-.05H175V10.54l-.33-.12-2.3,1.8V14h-1l-.7.82.12.28h1.6V22c0,2.08,1,3,2.79,3a3.48,3.48,0,0,0,1-.29Z" style="fill:#040000"/><path id="パス_260" data-name="パス 260" d="M32.76,32.46h-2.6v.37c.9.09.95.25.79.91s-.69,2.65-1.15,4.07h0c-.65-1.75-1.31-3.49-2-5.27h-.45c-.55,1.78-1.15,3.54-1.71,5.25h0c-.44-1.37-.84-2.77-1.26-4.16-.16-.57-.14-.71.7-.8v-.37H22v.37c.67.09.85.22,1.15,1.11.62,2,1.21,3.89,1.81,5.91h.51c.56-1.7,1.15-3.41,1.76-5.22h0c.61,1.64,1.29,3.49,1.91,5.22h.49c.95-3.12,1.62-5.14,1.88-5.85.32-.94.47-1.06,1.24-1.17ZM35,34.68a2.61,2.61,0,0,0-2.61,2.63v.07a2.46,2.46,0,0,0,2.43,2.48H35a2.51,2.51,0,0,0,2.55-2.48,1.21,1.21,0,0,0,0-.19,2.46,2.46,0,0,0-2.4-2.51H35Zm-.14.41c.83,0,1.29.94,1.29,2.4s-.52,2-1.06,2c-.8,0-1.33-1.07-1.33-2.46s.53-1.9,1.09-1.9Zm5.43.79V34.66a9.77,9.77,0,0,1-1.85.44v.28c.56.11.64.16.64.79v2.38c0,.72-.1.77-.75.85v.33h2.89V39.4c-.88-.08-.93-.13-.93-.85v-2c.21-.52.5-.75.74-.75a.76.76,0,0,1,.51.22.29.29,0,0,0,.32,0,.77.77,0,0,0,.48-.71.68.68,0,0,0-.72-.64c-.48,0-.92.54-1.31,1.2Zm8.2,3.23-.28,0c-.47,0-.53-.1-.53-.72V31.82a12.57,12.57,0,0,1-2,.4v.32c.74.06.82.11.82.77v1.46a2.88,2.88,0,0,0-3.61,2.67,2.33,2.33,0,0,0,2.22,2.42,1.48,1.48,0,0,0,.7-.25l.69-.43v.69a15.44,15.44,0,0,1,2-.43Zm-2-.31a1.44,1.44,0,0,1-.83.27c-.6,0-1.42-.57-1.42-1.92,0-1.67.92-2,1.28-2a1.06,1.06,0,0,1,1,.57Zm2.83-6.34v.37c.81.06.91.12.91,1.09v4.35c0,.94-.1,1-1,1.1v.36h3.33v-.35c-1-.09-1.09-.16-1.09-1.1V36.66l.8.2.49,0A2.31,2.31,0,0,0,55,34.53a1.87,1.87,0,0,0-.8-1.62,3.15,3.15,0,0,0-1.92-.45Zm2.17.95A.6.6,0,0,1,51.6,33a.9.9,0,0,1,.51-.12,1.48,1.48,0,0,1,1.54,1.42,1.34,1.34,0,0,1,0,.28c0,1.47-.89,1.8-1.44,1.8a2.06,2.06,0,0,1-.7-.12Zm6.33,2.47V34.66A9.77,9.77,0,0,1,56,35.1v.28c.56.11.64.16.64.79v2.38c0,.72-.1.77-.75.85v.33h2.89V39.4c-.88-.08-.93-.13-.93-.85v-2c.21-.52.5-.75.75-.75a.72.72,0,0,1,.5.22.29.29,0,0,0,.32,0,.8.8,0,0,0,.49-.71.7.7,0,0,0-.73-.64c-.47,0-.91.54-1.31,1.2Zm6.61,2.54a1.87,1.87,0,0,1-1.27.53c-.8,0-1.55-.62-1.58-2,1.2,0,2.6-.15,2.79-.18s.29-.16.29-.38a1.79,1.79,0,0,0-1.76-1.76h0a2.44,2.44,0,0,0-1.71.81,2.81,2.81,0,0,0-.79,2,2.25,2.25,0,0,0,2.09,2.39h.19a2.53,2.53,0,0,0,2-1.18Zm-1.79-3.3c.51,0,.82.56.82,1.13,0,.18-.07.22-.25.22-.54,0-1.05,0-1.59,0,.12-.91.55-1.38,1-1.38Zm6.2,1a7.38,7.38,0,0,0-.26-1.24,2.53,2.53,0,0,0-1.06-.2,1.63,1.63,0,0,0-1.8,1.44v.09c0,.93.84,1.33,1.44,1.6s.86.58.86,1a.68.68,0,0,1-.69.67h0c-.68,0-1.2-.71-1.43-1.44l-.31,0a5.94,5.94,0,0,0,.18,1.45,2.52,2.52,0,0,0,1.37.37,1.76,1.76,0,0,0,1.94-1.58v0c0-.83-.58-1.23-1.48-1.6-.54-.23-.88-.49-.88-.9a.65.65,0,0,1,.62-.67h0c.55,0,.91.45,1.18,1.12Zm4.43,0A7.4,7.4,0,0,0,73,34.88a2.52,2.52,0,0,0-1-.2,1.62,1.62,0,0,0-1.8,1.44.28.28,0,0,0,0,.09c0,.93.85,1.33,1.44,1.6s.86.58.86,1a.67.67,0,0,1-.69.67h0c-.68,0-1.2-.71-1.43-1.44L70,38a6.46,6.46,0,0,0,.17,1.45,2.54,2.54,0,0,0,1.37.37,1.76,1.76,0,0,0,1.94-1.58v0c0-.83-.58-1.23-1.48-1.6-.54-.23-.88-.49-.88-.9a.65.65,0,0,1,.62-.67h0c.55,0,.91.45,1.18,1.12Zm10.38-1.84c-.07-.68-.12-1.6-.12-2.1h-.26a.69.69,0,0,1-.62.28H78.1c-.32,0-.47,0-.64-.28h-.25c0,.6-.09,1.38-.14,2.15h.38a2.93,2.93,0,0,1,.44-1.1c.15-.2.37-.32,1.31-.32h.52v5.37c0,.92-.1,1-1.08,1.1v.35h3.5v-.35c-1-.09-1.13-.18-1.13-1.1V32.91h.64c.76,0,1,.07,1.18.3a2.62,2.62,0,0,1,.44,1.11Zm6.42,5.45V39.4c-.62-.09-.69-.12-.69-.85v-2c0-1.3-.62-1.9-1.56-1.9a2.4,2.4,0,0,0-1.56.76V31.82a13.35,13.35,0,0,1-1.9.4v.3c.65.06.7.09.7.78v5.26c0,.72-.08.78-.74.84v.33h2.56V39.4c-.56-.08-.61-.16-.61-.82V35.86a1.29,1.29,0,0,1,1-.43c.58,0,.94.36.94,1.25v1.9c0,.66,0,.74-.64.82v.33Zm4.83-1.31a1.87,1.87,0,0,1-1.27.53c-.8,0-1.55-.62-1.58-2,1.2,0,2.6-.15,2.79-.18s.29-.16.29-.38a1.78,1.78,0,0,0-1.76-1.76h0a2.46,2.46,0,0,0-1.71.81,2.85,2.85,0,0,0-.79,2A2.25,2.25,0,0,0,93,39.86h.19a2.53,2.53,0,0,0,2-1.18Zm-1.78-3.3c.5,0,.81.56.81,1.13,0,.18-.06.22-.25.22-.54,0-1.05,0-1.59,0,.13-.91.55-1.38,1-1.38Zm11.61,4.61V39.4c-.62-.09-.69-.12-.69-.82V36.46c0-1.14-.53-1.78-1.48-1.78a1.53,1.53,0,0,0-.87.31c-.26.17-.56.36-.86.59a1.35,1.35,0,0,0-1.27-.9,1.62,1.62,0,0,0-1,.34c-.29.17-.53.35-.77.52v-.89a13.93,13.93,0,0,1-1.8.45v.3c.57.09.62.16.62.85v2.32c0,.71-.08.76-.77.83v.33h2.54V39.4c-.49-.08-.56-.13-.56-.8V35.92a1.74,1.74,0,0,1,1-.46c.54,0,.88.34.88,1.17v2c0,.69-.08.73-.67.8v.34h2.52V39.4c-.55-.08-.65-.13-.65-.8V36.4c0-.19,0-.33,0-.46a1.59,1.59,0,0,1,1-.47c.5,0,.88.31.88,1.19v1.88c0,.74-.1.79-.67.86v.33Zm4.86-1.31a1.87,1.87,0,0,1-1.27.53c-.8,0-1.55-.62-1.58-2,1.2,0,2.6-.15,2.79-.18s.29-.16.29-.38a1.78,1.78,0,0,0-1.76-1.76h0a2.44,2.44,0,0,0-1.71.81,2.85,2.85,0,0,0-.79,2,2.25,2.25,0,0,0,2.09,2.39h.19a2.5,2.5,0,0,0,1.94-1.18Zm-1.78-3.3c.5,0,.81.56.81,1.13,0,.18-.07.22-.25.22-.54,0-1.05,0-1.59,0,.12-.91.55-1.38,1-1.38ZM120.39,35v.28c.68.06.93.24.93.68a2.82,2.82,0,0,1-.55,1.48L118.46,35c1.45-.55,2.07-1.14,2.07-2s-.86-1.63-2.19-1.63a2.51,2.51,0,0,0-1.92.68,1.81,1.81,0,0,0-.5,1.22,2.88,2.88,0,0,0,1,2c-1.33.56-1.93,1.29-1.93,2.39a2.12,2.12,0,0,0,.6,1.55,2.84,2.84,0,0,0,1.88.58,3.6,3.6,0,0,0,2.59-1l.78.88h2.22v-.27c-.44,0-.65-.17-1.28-.84l-.79-.82a9.75,9.75,0,0,0,.61-1.09c.39-.83.41-.87.6-1a1.29,1.29,0,0,1,.76-.28V35Zm-2.15-.27a8.3,8.3,0,0,1-.54-.64,1.94,1.94,0,0,1-.46-1.22,1.13,1.13,0,0,1,1-1.26h.12c.67,0,1.08.5,1.08,1.33a1.83,1.83,0,0,1-.43,1.25A2.9,2.9,0,0,1,118.24,34.77Zm1.63,3.75a2.75,2.75,0,0,1-.65.53,2.37,2.37,0,0,1-1.08.27c-1,0-1.68-.79-1.68-2a2.34,2.34,0,0,1,.34-1.26,1.79,1.79,0,0,1,.45-.46Zm7.64-6.06v.37c.82.06.92.12.92,1.09v4.35c0,.94-.1,1-1,1.1v.36h3.33v-.35c-1-.09-1.09-.16-1.09-1.1V36.66l.8.2.49,0a2.31,2.31,0,0,0,2.25-2.31,1.88,1.88,0,0,0-.79-1.62,3.18,3.18,0,0,0-1.93-.45Zm2.18.95a.6.6,0,0,1,.11-.43.9.9,0,0,1,.51-.12,1.48,1.48,0,0,1,1.54,1.42,1.34,1.34,0,0,1,0,.28c0,1.47-.89,1.8-1.44,1.8a2.06,2.06,0,0,1-.7-.12Zm7,6.32V39.4c-.7-.08-.78-.13-.78-.88v-6.7a11.72,11.72,0,0,1-1.94.4v.31c.66.06.73.09.73.8v5.19c0,.72-.08.78-.77.88v.33Zm6.26-.6-.27,0c-.43,0-.5-.13-.5-.71V34.73a7.35,7.35,0,0,1-.9.12c-.38,0-.77.08-1.1.09v.3l.38.07c.33.06.41.13.41.69v2.66a1.31,1.31,0,0,1-1,.41c-.43,0-.87-.26-.87-1.1V36.39c0-.69,0-1.24,0-1.66-.25.05-.61.09-.95.12s-.67.08-.94.09v.3l.29.07c.28.08.36.13.36.69v2.23c0,1.09.58,1.63,1.45,1.63a1.72,1.72,0,0,0,.93-.31,4.76,4.76,0,0,0,.68-.5v.73l.1.08.94-.22.94-.18Zm5.78-4.31c-.42.06-1,.13-1.59.16a2.32,2.32,0,0,0-1.15-.3h0a1.94,1.94,0,0,0-2.09,1.79v.06a1.56,1.56,0,0,0,1,1.49,3.25,3.25,0,0,1-1.08.72,1,1,0,0,0,.14.54,1.43,1.43,0,0,0,.85.61,8.34,8.34,0,0,0-.88.65.8.8,0,0,0-.33.63c0,.63.67,1.36,2,1.36s2.93-1.05,2.93-2.26-1-1.36-1.68-1.36c-.38,0-.73,0-1.12,0s-.71-.24-.71-.44a.56.56,0,0,1,.23-.37,5.32,5.32,0,0,0,.56.06,1.87,1.87,0,0,0,2.07-1.63s0-.09,0-.13a1.43,1.43,0,0,0-.31-.93l.65,0a1.68,1.68,0,0,0,.49-.63Zm-2.84.24c.6,0,.92.66.92,1.43s-.33,1.3-.79,1.3-.9-.62-.9-1.45.38-1.27.77-1.27Zm.17,4.87a3.14,3.14,0,0,1,1,.11.76.76,0,0,1,.57.76c0,.63-.53,1.13-1.46,1.13s-1.46-.51-1.46-1.07a.91.91,0,0,1,.36-.69c.19-.19.43-.24,1-.24Zm4.57-6.07a.71.71,0,0,0,.72-.69h0a.7.7,0,1,0-.72.69Zm1.46,5.87V39.4c-.7-.09-.76-.16-.76-.93v-3.8a11.91,11.91,0,0,1-1.86.42v.3c.58.09.65.14.65.85v2.23c0,.8-.08.85-.76.93v.33Zm6.43,0V39.4c-.61-.09-.68-.12-.68-.85v-2.1c0-1.12-.57-1.77-1.46-1.77a1.53,1.53,0,0,0-.9.33c-.27.16-.51.35-.73.49v-.85a12.67,12.67,0,0,1-1.84.45v.28c.56.11.63.16.63.85v2.29c0,.75-.05.78-.78.88v.33h2.61V39.4c-.55-.08-.62-.12-.62-.85V35.91a1.65,1.65,0,0,1,1-.45c.54,0,.89.36.89,1.14v1.86c0,.8-.06.86-.61.94v.33Zm4.13-3.61a7.4,7.4,0,0,0-.27-1.24,2.52,2.52,0,0,0-1.05-.2,1.62,1.62,0,0,0-1.81,1.43s0,.06,0,.1c0,.93.85,1.33,1.44,1.6s.86.57.86,1a.68.68,0,0,1-.68.67h0c-.68,0-1.2-.71-1.43-1.44l-.31,0a5.8,5.8,0,0,0,.18,1.44,2.61,2.61,0,0,0,1.36.38,1.77,1.77,0,0,0,1.94-1.58v0c0-.83-.59-1.23-1.49-1.6-.54-.23-.88-.49-.88-.9a.65.65,0,0,1,.62-.67h0c.55,0,.91.45,1.19,1.12Z" style="fill:#040000"/></g></svg>